<?xml version="1.0" encoding="UTF-8" standalone="no"?>
<!DOCTYPE svg PUBLIC "-//W3C//DTD SVG 1.1//EN"
 "http://www.w3.org/Graphics/SVG/1.1/DTD/svg11.dtd">
<!-- Generated by graphviz version 2.50.0 (0)
 -->
<!-- Pages: 1 -->
<svg width="470pt" height="188pt"
 viewBox="0.00 0.00 470.29 188.00" xmlns="http://www.w3.org/2000/svg" xmlns:xlink="http://www.w3.org/1999/xlink">
<g id="graph0" class="graph" transform="scale(1 1) rotate(0) translate(4 184)">
<polygon fill="white" stroke="transparent" points="-4,4 -4,-184 466.29,-184 466.29,4 -4,4"/>
<!-- Add(Pow(Symbol(&#39;x&#39;), Integer(2)), Mul(Symbol(&#39;x&#39;), Symbol(&#39;y&#39;)))_() -->
<g id="node1" class="node">
<title>Add(Pow(Symbol(&#39;x&#39;), Integer(2)), Mul(Symbol(&#39;x&#39;), Symbol(&#39;y&#39;)))_()</title>
<ellipse fill="none" stroke="black" cx="227.65" cy="-162" rx="27" ry="18"/>
<text text-anchor="middle" x="227.65" y="-158.3" font-family="Times,serif" font-size="14.00">Add</text>
</g>
<!-- Pow(Symbol(&#39;x&#39;), Integer(2))_(0,) -->
<g id="node2" class="node">
<title>Pow(Symbol(&#39;x&#39;), Integer(2))_(0,)</title>
<ellipse fill="none" stroke="black" cx="169.65" cy="-90" rx="27" ry="18"/>
<text text-anchor="middle" x="169.65" y="-86.3" font-family="Times,serif" font-size="14.00">Pow</text>
</g>
<!-- Add(Pow(Symbol(&#39;x&#39;), Integer(2)), Mul(Symbol(&#39;x&#39;), Symbol(&#39;y&#39;)))_()&#45;&gt;Pow(Symbol(&#39;x&#39;), Integer(2))_(0,) -->
<g id="edge1" class="edge">
<title>Add(Pow(Symbol(&#39;x&#39;), Integer(2)), Mul(Symbol(&#39;x&#39;), Symbol(&#39;y&#39;)))_()&#45;&gt;Pow(Symbol(&#39;x&#39;), Integer(2))_(0,)</title>
<path fill="none" stroke="black" d="M215.06,-145.81C207.38,-136.55 197.42,-124.52 188.78,-114.09"/>
<polygon fill="black" stroke="black" points="191.28,-111.63 182.21,-106.16 185.89,-116.09 191.28,-111.63"/>
</g>
<!-- Mul(Symbol(&#39;x&#39;), Symbol(&#39;y&#39;))_(1,) -->
<g id="node5" class="node">
<title>Mul(Symbol(&#39;x&#39;), Symbol(&#39;y&#39;))_(1,)</title>
<ellipse fill="none" stroke="black" cx="286.65" cy="-90" rx="27" ry="18"/>
<text text-anchor="middle" x="286.65" y="-86.3" font-family="Times,serif" font-size="14.00">Mul</text>
</g>
<!-- Add(Pow(Symbol(&#39;x&#39;), Integer(2)), Mul(Symbol(&#39;x&#39;), Symbol(&#39;y&#39;)))_()&#45;&gt;Mul(Symbol(&#39;x&#39;), Symbol(&#39;y&#39;))_(1,) -->
<g id="edge2" class="edge">
<title>Add(Pow(Symbol(&#39;x&#39;), Integer(2)), Mul(Symbol(&#39;x&#39;), Symbol(&#39;y&#39;)))_()&#45;&gt;Mul(Symbol(&#39;x&#39;), Symbol(&#39;y&#39;))_(1,)</title>
<path fill="none" stroke="black" d="M240.45,-145.81C248.26,-136.55 258.39,-124.52 267.18,-114.09"/>
<polygon fill="black" stroke="black" points="270.1,-116.06 273.87,-106.16 264.75,-111.55 270.1,-116.06"/>
</g>
<!-- Symbol(&#39;x&#39;)_(0, 0) -->
<g id="node3" class="node">
<title>Symbol(&#39;x&#39;)_(0, 0)</title>
<ellipse fill="none" stroke="black" cx="52.65" cy="-18" rx="52.79" ry="18"/>
<text text-anchor="middle" x="52.65" y="-14.3" font-family="Times,serif" font-size="14.00">Symbol(&#39;x&#39;)</text>
</g>
<!-- Pow(Symbol(&#39;x&#39;), Integer(2))_(0,)&#45;&gt;Symbol(&#39;x&#39;)_(0, 0) -->
<g id="edge3" class="edge">
<title>Pow(Symbol(&#39;x&#39;), Integer(2))_(0,)&#45;&gt;Symbol(&#39;x&#39;)_(0, 0)</title>
<path fill="none" stroke="black" d="M150.06,-77.28C132.72,-66.91 107.03,-51.54 86.39,-39.19"/>
<polygon fill="black" stroke="black" points="87.98,-36.06 77.6,-33.93 84.38,-42.07 87.98,-36.06"/>
</g>
<!-- Integer(2)_(0, 1) -->
<g id="node4" class="node">
<title>Integer(2)_(0, 1)</title>
<ellipse fill="none" stroke="black" cx="169.65" cy="-18" rx="46.59" ry="18"/>
<text text-anchor="middle" x="169.65" y="-14.3" font-family="Times,serif" font-size="14.00">Integer(2)</text>
</g>
<!-- Pow(Symbol(&#39;x&#39;), Integer(2))_(0,)&#45;&gt;Integer(2)_(0, 1) -->
<g id="edge4" class="edge">
<title>Pow(Symbol(&#39;x&#39;), Integer(2))_(0,)&#45;&gt;Integer(2)_(0, 1)</title>
<path fill="none" stroke="black" d="M169.65,-71.7C169.65,-63.98 169.65,-54.71 169.65,-46.11"/>
<polygon fill="black" stroke="black" points="173.15,-46.1 169.65,-36.1 166.15,-46.1 173.15,-46.1"/>
</g>
<!-- Symbol(&#39;x&#39;)_(1, 0) -->
<g id="node6" class="node">
<title>Symbol(&#39;x&#39;)_(1, 0)</title>
<ellipse fill="none" stroke="black" cx="286.65" cy="-18" rx="52.79" ry="18"/>
<text text-anchor="middle" x="286.65" y="-14.3" font-family="Times,serif" font-size="14.00">Symbol(&#39;x&#39;)</text>
</g>
<!-- Mul(Symbol(&#39;x&#39;), Symbol(&#39;y&#39;))_(1,)&#45;&gt;Symbol(&#39;x&#39;)_(1, 0) -->
<g id="edge5" class="edge">
<title>Mul(Symbol(&#39;x&#39;), Symbol(&#39;y&#39;))_(1,)&#45;&gt;Symbol(&#39;x&#39;)_(1, 0)</title>
<path fill="none" stroke="black" d="M286.65,-71.7C286.65,-63.98 286.65,-54.71 286.65,-46.11"/>
<polygon fill="black" stroke="black" points="290.15,-46.1 286.65,-36.1 283.15,-46.1 290.15,-46.1"/>
</g>
<!-- Symbol(&#39;y&#39;)_(1, 1) -->
<g id="node7" class="node">
<title>Symbol(&#39;y&#39;)_(1, 1)</title>
<ellipse fill="none" stroke="black" cx="409.65" cy="-18" rx="52.79" ry="18"/>
<text text-anchor="middle" x="409.65" y="-14.3" font-family="Times,serif" font-size="14.00">Symbol(&#39;y&#39;)</text>
</g>
<!-- Mul(Symbol(&#39;x&#39;), Symbol(&#39;y&#39;))_(1,)&#45;&gt;Symbol(&#39;y&#39;)_(1, 1) -->
<g id="edge6" class="edge">
<title>Mul(Symbol(&#39;x&#39;), Symbol(&#39;y&#39;))_(1,)&#45;&gt;Symbol(&#39;y&#39;)_(1, 1)</title>
<path fill="none" stroke="black" d="M306.68,-77.6C325.11,-67.11 352.83,-51.33 374.87,-38.79"/>
<polygon fill="black" stroke="black" points="376.66,-41.8 383.62,-33.81 373.2,-35.72 376.66,-41.8"/>
</g>
</g>
</svg>
