<?xml version="1.0" encoding="UTF-8" standalone="no"?>
<!DOCTYPE svg PUBLIC "-//W3C//DTD SVG 1.1//EN"
 "http://www.w3.org/Graphics/SVG/1.1/DTD/svg11.dtd">
<!-- Generated by graphviz version 2.50.0 (0)
 -->
<!-- Pages: 1 -->
<svg width="269pt" height="188pt"
 viewBox="0.00 0.00 268.69 188.00" xmlns="http://www.w3.org/2000/svg" xmlns:xlink="http://www.w3.org/1999/xlink">
<g id="graph0" class="graph" transform="scale(1 1) rotate(0) translate(4 184)">
<polygon fill="white" stroke="transparent" points="-4,4 -4,-184 264.69,-184 264.69,4 -4,4"/>
<!-- Symbol(x)_(0,) -->
<g id="node1" class="node">
<title>Symbol(x)_(0,)</title>
<ellipse fill="none" stroke="black" cx="52.65" cy="-90" rx="52.79" ry="18"/>
<text text-anchor="middle" x="52.65" y="-86.3" font-family="Times,serif" font-size="14.00">Symbol(&#39;x&#39;)</text>
</g>
<!-- Symbol(y)_(1, 0) -->
<g id="node2" class="node">
<title>Symbol(y)_(1, 0)</title>
<ellipse fill="none" stroke="black" cx="89.65" cy="-18" rx="52.79" ry="18"/>
<text text-anchor="middle" x="89.65" y="-14.3" font-family="Times,serif" font-size="14.00">Symbol(&#39;y&#39;)</text>
</g>
<!-- NegativeOne()_(1, 1) -->
<g id="node3" class="node">
<title>NegativeOne()_(1, 1)</title>
<ellipse fill="none" stroke="black" cx="210.65" cy="-18" rx="50.09" ry="18"/>
<text text-anchor="middle" x="210.65" y="-14.3" font-family="Times,serif" font-size="14.00">Integer(&#45;1)</text>
</g>
<!-- Pow(Symbol(y), NegativeOne())_(1,) -->
<g id="node4" class="node">
<title>Pow(Symbol(y), NegativeOne())_(1,)</title>
<ellipse fill="none" stroke="black" cx="150.65" cy="-90" rx="27" ry="18"/>
<text text-anchor="middle" x="150.65" y="-86.3" font-family="Times,serif" font-size="14.00">Pow</text>
</g>
<!-- Pow(Symbol(y), NegativeOne())_(1,)&#45;&gt;Symbol(y)_(1, 0) -->
<g id="edge1" class="edge">
<title>Pow(Symbol(y), NegativeOne())_(1,)&#45;&gt;Symbol(y)_(1, 0)</title>
<path fill="none" stroke="black" d="M137.71,-74.15C129.98,-65.29 119.97,-53.8 111.09,-43.61"/>
<polygon fill="black" stroke="black" points="113.48,-41.03 104.28,-35.79 108.21,-45.63 113.48,-41.03"/>
</g>
<!-- Pow(Symbol(y), NegativeOne())_(1,)&#45;&gt;NegativeOne()_(1, 1) -->
<g id="edge2" class="edge">
<title>Pow(Symbol(y), NegativeOne())_(1,)&#45;&gt;NegativeOne()_(1, 1)</title>
<path fill="none" stroke="black" d="M163.66,-73.81C171.28,-64.93 181.07,-53.5 189.74,-43.39"/>
<polygon fill="black" stroke="black" points="192.54,-45.5 196.39,-35.63 187.23,-40.94 192.54,-45.5"/>
</g>
<!-- Mul(Symbol(x), Pow(Symbol(y), NegativeOne()))_() -->
<g id="node5" class="node">
<title>Mul(Symbol(x), Pow(Symbol(y), NegativeOne()))_()</title>
<ellipse fill="none" stroke="black" cx="101.65" cy="-162" rx="27" ry="18"/>
<text text-anchor="middle" x="101.65" y="-158.3" font-family="Times,serif" font-size="14.00">Mul</text>
</g>
<!-- Mul(Symbol(x), Pow(Symbol(y), NegativeOne()))_()&#45;&gt;Symbol(x)_(0,) -->
<g id="edge3" class="edge">
<title>Mul(Symbol(x), Pow(Symbol(y), NegativeOne()))_()&#45;&gt;Symbol(x)_(0,)</title>
<path fill="none" stroke="black" d="M90.77,-145.46C84.75,-136.87 77.12,-125.97 70.28,-116.19"/>
<polygon fill="black" stroke="black" points="73.12,-114.15 64.52,-107.96 67.39,-118.16 73.12,-114.15"/>
</g>
<!-- Mul(Symbol(x), Pow(Symbol(y), NegativeOne()))_()&#45;&gt;Pow(Symbol(y), NegativeOne())_(1,) -->
<g id="edge4" class="edge">
<title>Mul(Symbol(x), Pow(Symbol(y), NegativeOne()))_()&#45;&gt;Pow(Symbol(y), NegativeOne())_(1,)</title>
<path fill="none" stroke="black" d="M112.52,-145.46C118.8,-136.49 126.83,-125.02 133.9,-114.92"/>
<polygon fill="black" stroke="black" points="136.93,-116.69 139.8,-106.49 131.2,-112.68 136.93,-116.69"/>
</g>
</g>
</svg>
